<?xml version="1.0" encoding="UTF-8"?>
<!-- Do not edit this file with editors other than diagrams.net -->
<!DOCTYPE svg PUBLIC "-//W3C//DTD SVG 1.1//EN" "http://www.w3.org/Graphics/SVG/1.1/DTD/svg11.dtd">
<svg xmlns="http://www.w3.org/2000/svg" xmlns:xlink="http://www.w3.org/1999/xlink" version="1.1" width="383px" height="299px" viewBox="-0.5 -0.5 383 299" content="&lt;mxfile host=&quot;app.diagrams.net&quot; modified=&quot;2022-04-18T17:58:29.696Z&quot; agent=&quot;5.0 (Windows NT 10.0; Win64; x64) AppleWebKit/537.36 (KHTML, like Gecko) Chrome/100.0.4896.88 Safari/537.36&quot; version=&quot;17.4.5&quot; etag=&quot;Hz4eXi6993KfC4KX9XT3&quot;&gt;&lt;diagram id=&quot;cKM97PtNhW3UtTX0Sei1&quot;&gt;7ZpJc5swFMc/jY/1SGyxj7YTp5dOO/WhZxlkrAkgKoSXfvpKILF7SRxczxQzk8CT9CTe/ye0wMhchIdXhuLtN+rhYGQA7zAyn0eGMZ1A8VcajrkBOgbILT4jnrKVhhX5g5VRZ0uJh5NaRk5pwElcN7o0irDLazbEGN3Xs21oUK81Rj5uGVYuCtrWX8Tj29w6sUFp/4qJv9U1Q6BSQqQzK0OyRR7dV0zmy8hcMEp5fhYeFjiQwdNxycstT6QWDWM44tcUMPICOxSk6t5Uu/hR3yyOvJmMmbhyA5QkxB2Z8y0PA2GA4pTRNPKw9AfElci9JIFOS94wd7fqYiPsCxpQlvk1N7Y8ZCbO6BuupDjZT5agEV+ikAQSlFdMmU+QMOdNxF5LpPKuYRFLASGmIebsKLLsS7W0WNuKUNrGcIA42dXdIwWNX7gravhBiajYAApw01F+FN+mVlu7SGjKXKxKVdW54Ag6DUccMR/zliNxUrnt0pSJ3w2COYDwwCDYlxx9HgjWI4IwAfJQIAyAtB0ZDUdWf4DYHYA4gYjLfC1OfJ6FPTdIVWroOL9TqhO+JNm4PhMZoBUfykTt5RnHAT2GUinDQWEsTNE6kf+eCfIZCnU1osV5TfXahbnSogbDHB94ndo6dBGNcINQZUIB8SOJvmgYFvb5DjNOxORgphJC4nmymvl+SzhexciVde7FVKjVN+q94RzDshJ8eC/Fmg5Qp8OYqusK5bALcxOcJrqG0BlenHvxMmOuDLjLU4ZkA56xSxJCI3H6E7uUeckAzJXAmHbjuTR1WsAUcFSBaT52PgLM0+URqKJCV8zErDqWlyShi3SNDckact/8LJbfUx4QKUxWXGSZRX7mF9p50XxC3o62UHalmoBSTpUAanUCjYIIvSToGOEAWC4B6LevW42+Dtt9fdKh3OQTlJvcq6svRCbZH0Unv30oKHvYKZ6qnf52Pmo8yN+DkGNOG6uNa0cJ6xPQmd4LnRXd8L2IycBOn+wUE+R7sKOfcOdGDPnsjz8QArWFhNbaEXh3aCaNsdTqCM3TmTXGTaGBl0OjR8uI8lOTkArEpwZSD7G376IU4fI+wRjYTcgTRbPVJhSuEcQnKHdeZsv2ym+T/W5lGnQrV1HG6kuYK3beBmFOdKmOh0tvOl2xMTbodEKnYt/7HkJ1bVzdOoNwumYQ4/F4WEhejUBjOWK2iehrHQnP7lRdob7Zpf67Ger0wtKIk1BOQncE7/vESXT1eXbcmSlGOeJy9yVP+9DG7W0LYbOxnOlAr3hAffamFzy76/Wv2BOzWa1AadRatGpLpIDu/4VoPyha8GlsX4RxavfE4hUbasMrnYd7pXPHd36wa+NuIOTRCenv8wBxWX6Dkmcvv+QxX/4C&lt;/diagram&gt;&lt;/mxfile&gt;" style="background-color: rgb(255, 255, 255);"><defs/><g><path d="M 162 190 L 162 36.37" fill="none" stroke="none" pointer-events="stroke"/><path d="M 162 31.12 L 165.5 38.12 L 162 36.37 L 158.5 38.12 Z" fill="none" stroke="none" pointer-events="all"/><path d="M 162 190 M 162 190 C 163.44 159.64 161.66 125.83 162 36.37 M 162 190 C 162.59 144.71 161.47 100.94 162 36.37" fill="none" stroke="#666666" stroke-linejoin="round" stroke-linecap="round" stroke-miterlimit="10" pointer-events="stroke"/><path d="M 162.3 30.78 C 162.3 30.78 162.3 30.78 162.3 30.78 M 162.3 30.78 C 162.3 30.78 162.3 30.78 162.3 30.78 M 162.69 36.42 C 163.08 35.99 163.44 35.59 164 34.91 M 162.69 36.42 C 163.14 35.9 163.6 35.49 164 34.91" fill="none" stroke="#666666" stroke-width="0.5" stroke-linejoin="round" stroke-linecap="round" stroke-miterlimit="10" pointer-events="all"/><path d="M 162 31.12 M 162 31.12 C 163.38 33.14 164.83 35.79 165.5 38.12 M 162 31.12 C 162.64 33.1 163.46 34.44 165.5 38.12 M 165.5 38.12 C 164.52 37.7 163.72 37.54 162 36.37 M 165.5 38.12 C 164.46 37.78 163.57 37.03 162 36.37 M 162 36.37 C 160.73 37.05 159.78 37.17 158.5 38.12 M 162 36.37 C 160.64 36.91 159.34 37.68 158.5 38.12 M 158.5 38.12 C 159.06 35.83 160.58 34.7 162 31.12 M 158.5 38.12 C 159.37 35.95 160.39 33.61 162 31.12" fill="none" stroke="#666666" stroke-linejoin="round" stroke-linecap="round" stroke-miterlimit="10" pointer-events="all"/><path d="M 162 190 L 355.63 190" fill="none" stroke="none" pointer-events="stroke"/><path d="M 360.88 190 L 353.88 193.5 L 355.63 190 L 353.88 186.5 Z" fill="none" stroke="none" pointer-events="all"/><path d="M 162 190 M 162 190 C 202 189.61 242.41 191.23 355.63 190 M 162 190 C 231.44 188.61 301.96 188.59 355.63 190" fill="none" stroke="#666666" stroke-linejoin="round" stroke-linecap="round" stroke-miterlimit="10" pointer-events="stroke"/><path d="M 353.77 186.62 C 353.77 186.62 353.77 186.62 353.77 186.62 M 353.77 186.62 C 353.77 186.62 353.77 186.62 353.77 186.62 M 356.13 190 C 356.55 189.72 356.83 189.13 357.45 188.49 M 356.13 190 C 356.47 189.49 356.99 189.09 357.45 188.49" fill="none" stroke="#666666" stroke-width="0.5" stroke-linejoin="round" stroke-linecap="round" stroke-miterlimit="10" pointer-events="all"/><path d="M 360.88 190 M 360.88 190 C 359.18 191.31 357.01 191.81 353.88 193.5 M 360.88 190 C 359.13 191.26 356.74 192.24 353.88 193.5 M 353.88 193.5 C 354.21 192.16 355.1 190.64 355.63 190 M 353.88 193.5 C 354.46 192.82 354.67 191.69 355.63 190 M 355.63 190 C 355.02 188.63 354.55 187.47 353.88 186.5 M 355.63 190 C 355.23 188.9 354.75 188.3 353.88 186.5 M 353.88 186.5 C 356.66 188.51 358.69 188.72 360.88 190 M 353.88 186.5 C 356.15 187.53 357.64 188.56 360.88 190" fill="none" stroke="#666666" stroke-linejoin="round" stroke-linecap="round" stroke-miterlimit="10" pointer-events="all"/><path d="M 162 190 L 66.5 285.5" fill="none" stroke="none" pointer-events="stroke"/><path d="M 62.79 289.21 L 65.27 281.78 L 66.5 285.5 L 70.22 286.73 Z" fill="none" stroke="none" pointer-events="all"/><path d="M 162 190 M 162 190 C 142.62 207.56 123.07 228.8 66.5 285.5 M 162 190 C 140.21 211.1 117.9 234.64 66.5 285.5" fill="none" stroke="#808080" stroke-linejoin="round" stroke-linecap="round" stroke-miterlimit="10" pointer-events="stroke"/><path d="M 65.33 281.71 C 65.33 281.71 65.33 281.71 65.33 281.71 M 65.33 281.71 C 65.33 281.71 65.33 281.71 65.33 281.71 M 63.75 289.62 C 64.76 288.34 66.3 287.4 67.04 285.85 M 63.75 289.62 C 64.81 288.42 65.76 287.46 67.04 285.85" fill="none" stroke="#808080" stroke-width="0.5" stroke-linejoin="round" stroke-linecap="round" stroke-miterlimit="10" pointer-events="all"/><path d="M 62.79 289.21 M 62.79 289.21 C 63.17 286.85 64.12 285.42 65.27 281.78 M 62.79 289.21 C 63.59 287.18 64.39 284.33 65.27 281.78 M 65.27 281.78 C 65.81 283.07 65.74 284.55 66.5 285.5 M 65.27 281.78 C 65.61 283.42 66.31 284.61 66.5 285.5 M 66.5 285.5 C 67.59 285.89 67.88 285.72 70.22 286.73 M 66.5 285.5 C 67.7 286.09 69.05 286.24 70.22 286.73 M 70.22 286.73 C 68.87 287.31 66.6 287.87 62.79 289.21 M 70.22 286.73 C 68.35 287.45 66.42 288.23 62.79 289.21" fill="none" stroke="#808080" stroke-linejoin="round" stroke-linecap="round" stroke-miterlimit="10" pointer-events="all"/><rect x="2" y="160" width="150" height="30" fill="none" stroke="none" pointer-events="all"/><g transform="translate(-0.5 -0.5)"><switch><foreignObject pointer-events="none" width="100%" height="100%" requiredFeatures="http://www.w3.org/TR/SVG11/feature#Extensibility" style="overflow: visible; text-align: left;"><div xmlns="http://www.w3.org/1999/xhtml" style="display: flex; align-items: unsafe center; justify-content: unsafe center; width: 148px; height: 1px; padding-top: 175px; margin-left: 3px;"><div data-drawio-colors="color: rgb(0, 0, 0); " style="box-sizing: border-box; font-size: 0px; text-align: center;"><div style="display: inline-block; font-size: 12px; font-family: Georgia; color: rgb(0, 0, 0); line-height: 1.2; pointer-events: all; white-space: normal; overflow-wrap: normal;"><b><font style="font-size: 14px">Deployment Diagram</font></b></div></div></div></foreignObject><text x="77" y="179" fill="rgb(0, 0, 0)" font-family="Georgia" font-size="12px" text-anchor="middle">Deployment Diagram</text></switch></g><rect x="152" y="266" width="230" height="20" fill="none" stroke="none" pointer-events="all"/><g transform="translate(-0.5 -0.5)"><switch><foreignObject pointer-events="none" width="100%" height="100%" requiredFeatures="http://www.w3.org/TR/SVG11/feature#Extensibility" style="overflow: visible; text-align: left;"><div xmlns="http://www.w3.org/1999/xhtml" style="display: flex; align-items: unsafe center; justify-content: unsafe center; width: 228px; height: 1px; padding-top: 276px; margin-left: 153px;"><div data-drawio-colors="color: rgb(0, 0, 0); " style="box-sizing: border-box; font-size: 0px; text-align: center;"><div style="display: inline-block; font-size: 12px; font-family: Georgia; color: rgb(0, 0, 0); line-height: 1.2; pointer-events: all; white-space: normal; overflow-wrap: normal;"><b><font style="font-size: 14px">Architectural Decision Records</font></b></div></div></div></foreignObject><text x="267" y="280" fill="rgb(0, 0, 0)" font-family="Georgia" font-size="12px" text-anchor="middle">Architectural Decision Records</text></switch></g><path d="M 82 80 L 122 99.21 L 122 140.79 L 82 160 L 42 140.79 L 42 99.21 Z" fill="none" stroke="none" pointer-events="all"/><path d="M 42 99.21 L 82 118.41 L 122 99.21 M 82 118.41 L 82 160" fill="none" stroke="none" pointer-events="all"/><path d="M 42.33 98.83 C 42.33 98.83 42.33 98.83 42.33 98.83 M 42.33 98.83 C 42.33 98.83 42.33 98.83 42.33 98.83 M 42.07 105.23 C 44.64 102.2 49.37 97.29 51.25 94.67 M 42.07 105.23 C 44.98 101.17 48.64 97.77 51.25 94.67 M 41.8 111.63 C 47.63 108.16 51.36 102.08 60.17 90.5 M 41.8 111.63 C 46.97 107.3 49.24 102.54 60.17 90.5 M 42.2 117.27 C 46.57 111.67 52.94 103.25 69.1 86.33 M 42.2 117.27 C 51.69 104.81 62.58 94.47 69.1 86.33 M 41.94 123.67 C 54.63 106.87 68.63 90.34 78.68 81.41 M 41.94 123.67 C 56.26 106.31 72.13 90.13 78.68 81.41 M 41.68 130.07 C 52.87 115.34 65.67 103.78 83.66 81.77 M 41.68 130.07 C 57.01 112.32 73.54 93.31 83.66 81.77 M 42.07 135.71 C 60.88 116.71 75.57 95.96 87.34 83.64 M 42.07 135.71 C 55.38 120.8 68.86 103.69 87.34 83.64 M 42.46 141.35 C 55.84 126.18 68.7 112.45 91.01 85.51 M 42.46 141.35 C 57.7 123.86 73.7 106.16 91.01 85.51 M 46.14 143.22 C 62.58 126.42 74.89 109.69 95.34 86.62 M 46.14 143.22 C 55.91 132.79 66.77 120.03 95.34 86.62 M 49.81 145.09 C 63.08 128.31 79.09 111.39 99.02 88.49 M 49.81 145.09 C 65.61 128.16 79.75 109.53 99.02 88.49 M 53.49 146.96 C 69.39 129.43 84.96 110.68 102.69 90.36 M 53.49 146.96 C 69.47 127.97 85.85 110.52 102.69 90.36 M 57.82 148.08 C 76.89 128.34 93.21 105.32 106.37 92.23 M 57.82 148.08 C 70.18 134.49 82.01 120.49 106.37 92.23 M 61.5 149.95 C 75.69 133.83 87.83 121.15 110.04 94.1 M 61.5 149.95 C 77.65 132.03 92 112.82 110.04 94.1 M 65.17 151.82 C 77.38 137.67 90.79 119.87 113.72 95.97 M 65.17 151.82 C 80.42 132.73 97.88 114.49 113.72 95.97 M 68.85 153.69 C 83.86 136.87 94.54 124.46 117.39 97.84 M 68.85 153.69 C 78.29 141.5 89.52 130.68 117.39 97.84 M 72.52 155.56 C 82.36 143.12 92.57 133.43 121.07 99.71 M 72.52 155.56 C 89.54 135.74 105.31 115.38 121.07 99.71 M 76.19 157.43 C 91.86 141.83 106.76 125.08 124.74 101.58 M 76.19 157.43 C 88.86 142.64 101.19 129.06 124.74 101.58 M 79.87 159.3 C 90.04 147.42 97.27 136.49 124.48 107.97 M 79.87 159.3 C 89.08 146.56 101.02 135.47 124.48 107.97 M 83.54 161.16 C 95.68 147.81 104.73 134.81 124.88 113.62 M 83.54 161.16 C 94.28 149.02 105.21 135.8 124.88 113.62 M 92.47 157 C 104.95 141.65 115.7 129.95 124.61 120.02 M 92.47 157 C 99.25 148.78 106.32 141.43 124.61 120.02 M 101.39 152.83 C 108.46 143.73 114.22 137.76 125.01 125.66 M 101.39 152.83 C 106.81 146.41 113.39 138.77 125.01 125.66 M 110.97 147.91 C 115.2 143.39 121.28 136.29 124.75 132.06 M 110.97 147.91 C 115.57 141.79 121.93 135.72 124.75 132.06" fill="none" stroke="#00ff00" stroke-width="0.5" stroke-linejoin="round" stroke-linecap="round" stroke-miterlimit="10" pointer-events="all"/><path d="M 82 80 M 82 80 C 97.85 87.89 113.19 96.44 122 99.21 M 82 80 C 93.58 84.73 106.38 91.75 122 99.21 M 122 99.21 C 123.5 113.8 123.47 131.99 122 140.79 M 122 99.21 C 122.5 108.24 121.44 117.12 122 140.79 M 122 140.79 C 111.11 146.3 101.78 151.29 82 160 M 122 140.79 C 106.67 149.03 90.04 155.72 82 160 M 82 160 C 70.48 154.18 60.12 150.21 42 140.79 M 82 160 C 71.03 154.19 59.09 147.73 42 140.79 M 42 140.79 C 42.05 128.79 41.66 119.17 42 99.21 M 42 140.79 C 43.13 125.89 42.9 110.51 42 99.21 M 42 99.21 C 54.59 93.29 65.46 89.51 82 80 M 42 99.21 C 51.44 94.23 60.37 90.01 82 80" fill="none" stroke="rgb(0, 0, 0)" stroke-linejoin="round" stroke-linecap="round" stroke-miterlimit="10" pointer-events="all"/><path d="M 42 99.21 M 42 99.21 C 55.08 106.99 66.61 110.05 82 118.41 M 42 99.21 C 57.32 105.19 73.18 113.05 82 118.41 M 82 118.41 C 95.66 112.39 112.37 103.85 122 99.21 M 82 118.41 C 95.2 111.2 109.42 104.98 122 99.21 M 82 118.41 M 82 118.41 C 83.62 129.98 82.92 139.03 82 160 M 82 118.41 C 82.98 128.26 81.07 137.75 82 160" fill="none" stroke="rgb(0, 0, 0)" stroke-linejoin="round" stroke-linecap="round" stroke-miterlimit="10" pointer-events="all"/><rect x="192" y="60" width="150" height="40" rx="6" ry="6" fill="none" stroke="none" pointer-events="all"/><path d="M 193.31 61.71 C 193.31 61.71 193.31 61.71 193.31 61.71 M 193.31 61.71 C 193.31 61.71 193.31 61.71 193.31 61.71 M 193.71 67.36 C 195.64 65.69 195.91 64.68 198.96 61.32 M 193.71 67.36 C 195.54 65.26 196.91 63.63 198.96 61.32 M 193.45 73.76 C 195.09 71.71 198.82 65.15 204.6 60.93 M 193.45 73.76 C 196.21 70.39 198.73 67.37 204.6 60.93 M 193.84 79.4 C 200.76 74.05 203.79 67.53 209.59 61.29 M 193.84 79.4 C 199.04 73.88 205.68 66.63 209.59 61.29 M 193.58 85.8 C 197.58 79.56 204.29 72.03 215.23 60.89 M 193.58 85.8 C 198.85 79.53 205.92 72.01 215.23 60.89 M 193.32 92.19 C 197.79 86.31 203.71 78.38 220.22 61.25 M 193.32 92.19 C 200.27 84.32 209.26 74.02 220.22 61.25 M 195.02 96.33 C 202.12 88 205.98 82.03 225.86 60.86 M 195.02 96.33 C 203.5 87.54 211.13 76.49 225.86 60.86 M 196.73 100.46 C 203.13 90.3 210.9 82.72 230.85 61.22 M 196.73 100.46 C 208.84 86.38 220.44 72.74 230.85 61.22 M 201.72 100.82 C 207.99 89.36 218.65 81.01 236.49 60.82 M 201.72 100.82 C 214.04 85.69 226.56 72.26 236.49 60.82 M 207.36 100.43 C 222 86.24 231.52 73.6 241.48 61.18 M 207.36 100.43 C 218.59 87.5 230.49 72.67 241.48 61.18 M 212.35 100.79 C 225.59 87.89 238.23 69.42 246.46 61.54 M 212.35 100.79 C 220.79 91.32 229 82.79 246.46 61.54 M 217.99 100.39 C 228.88 87.33 237.62 78.17 252.11 61.15 M 217.99 100.39 C 226.19 89.59 235.64 79.11 252.11 61.15 M 222.98 100.75 C 235.2 88.76 247.2 73.64 257.09 61.51 M 222.98 100.75 C 234.21 87.17 245.97 76.38 257.09 61.51 M 227.97 101.11 C 237.8 89.2 250.02 77.62 262.74 61.11 M 227.97 101.11 C 241.02 86.09 254.52 71.73 262.74 61.11 M 233.61 100.72 C 241.69 91.08 251.1 81.35 267.72 61.47 M 233.61 100.72 C 246.33 86.46 258.16 71.88 267.72 61.47 M 238.6 101.08 C 246.37 90.75 254.11 82.21 273.37 61.08 M 238.6 101.08 C 249.04 90.02 258.96 76.69 273.37 61.08 M 244.24 100.68 C 255.23 87.02 271.08 70.63 278.35 61.44 M 244.24 100.68 C 253.28 88.97 263.29 79.01 278.35 61.44 M 249.23 101.04 C 258.63 89.84 266.3 78.13 284 61.04 M 249.23 101.04 C 256.95 94.18 262.69 85.86 284 61.04 M 254.87 100.65 C 265.07 87.52 277 75.49 288.98 61.4 M 254.87 100.65 C 264.66 90.85 272.06 80.66 288.98 61.4 M 259.86 101.01 C 271.93 87.57 284.42 72.48 294.63 61.01 M 259.86 101.01 C 273.48 86.2 286.09 68.67 294.63 61.01 M 265.5 100.61 C 273.6 90.47 283.66 78.66 299.61 61.37 M 265.5 100.61 C 276.7 87.44 286.82 75.17 299.61 61.37 M 270.49 100.97 C 281.86 90.33 287.7 79.21 305.26 60.98 M 270.49 100.97 C 282.17 89.88 292.35 77.2 305.26 60.98 M 276.13 100.58 C 282.36 92.81 292.31 83.38 310.24 61.34 M 276.13 100.58 C 287.88 87.46 300.07 74.73 310.24 61.34 M 281.12 100.94 C 289.33 93.83 296.69 83.18 315.23 61.7 M 281.12 100.94 C 292.12 88.58 302.6 75.84 315.23 61.7 M 286.76 100.55 C 296.39 90.11 301.83 81.04 320.87 61.3 M 286.76 100.55 C 299.75 85.16 312.06 71.67 320.87 61.3 M 291.75 100.91 C 300.27 88.59 312.49 77.22 325.86 61.66 M 291.75 100.91 C 301.3 87.81 313.39 76.94 325.86 61.66 M 296.73 101.27 C 304.97 92.22 314.81 78.51 331.5 61.27 M 296.73 101.27 C 311.28 85.96 324.6 69.63 331.5 61.27 M 302.38 100.87 C 313.98 88.64 325.62 75.35 336.49 61.63 M 302.38 100.87 C 316.63 85.79 328.35 70.75 336.49 61.63 M 307.36 101.23 C 315.79 92.85 325.75 80.85 341.48 61.99 M 307.36 101.23 C 317.83 88.19 328.7 74.82 341.48 61.99 M 313.01 100.84 C 320.76 91.08 329.64 85.55 342.53 66.87 M 313.01 100.84 C 322.46 90.08 330.35 80.63 342.53 66.87 M 317.99 101.2 C 324.67 92.9 329.88 83.55 342.92 72.52 M 317.99 101.2 C 323.46 94.57 328.23 89.01 342.92 72.52 M 323.64 100.8 C 331.39 94.08 338.22 83.94 342.66 78.92 M 323.64 100.8 C 328.03 95.54 331.34 92.9 342.66 78.92 M 328.62 101.16 C 332.96 97.68 335.61 94.96 342.4 85.31 M 328.62 101.16 C 333.11 96.55 336.07 91.74 342.4 85.31 M 334.27 100.77 C 336.09 99.15 339.58 96.57 342.14 91.71 M 334.27 100.77 C 337.37 97.42 339.81 94.56 342.14 91.71" fill="none" stroke="#00ff00" stroke-width="0.5" stroke-linejoin="round" stroke-linecap="round" stroke-miterlimit="10" pointer-events="all"/><path d="M 198 60 M 198 60 C 243.72 58.79 295.03 59.06 336 60 M 198 60 C 231.64 60.2 265.9 59.97 336 60 M 336 60 C 340.6 58.01 340.46 63.47 342 66 M 336 60 C 338.57 58.49 342.88 61.88 342 66 M 342 66 C 342.22 74.16 342.68 81.27 342 94 M 342 66 C 341.34 75.52 342.39 85.14 342 94 M 342 94 C 342.05 97.25 341.75 100.96 336 100 M 342 94 C 341.33 96.17 338.19 99.4 336 100 M 336 100 C 286.43 98.5 238.21 99.75 198 100 M 336 100 C 300.35 100.75 265.84 99.69 198 100 M 198 100 C 192.82 99.88 191.68 99.36 192 94 M 198 100 C 194.85 98.96 190.83 99.3 192 94 M 192 94 C 190.11 84.22 192.94 76.74 192 66 M 192 94 C 192.6 83.99 192.01 75.46 192 66 M 192 66 C 193.62 63.13 195.2 61.41 198 60 M 192 66 C 192.47 62.6 195.55 61.31 198 60" fill="none" stroke="#000000" stroke-linejoin="round" stroke-linecap="round" stroke-miterlimit="10" pointer-events="all"/><g transform="translate(-0.5 -0.5)"><switch><foreignObject pointer-events="none" width="100%" height="100%" requiredFeatures="http://www.w3.org/TR/SVG11/feature#Extensibility" style="overflow: visible; text-align: left;"><div xmlns="http://www.w3.org/1999/xhtml" style="display: flex; align-items: unsafe center; justify-content: unsafe center; width: 148px; height: 1px; padding-top: 80px; margin-left: 193px;"><div data-drawio-colors="color: rgb(0, 0, 0); " style="box-sizing: border-box; font-size: 0px; text-align: center;"><div style="display: inline-block; font-size: 12px; font-family: Georgia; color: rgb(0, 0, 0); line-height: 1.2; pointer-events: all; white-space: normal; overflow-wrap: normal;"><b><font style="font-size: 14px">Context Diagram</font></b></div></div></div></foreignObject><text x="267" y="84" fill="rgb(0, 0, 0)" font-family="Georgia" font-size="12px" text-anchor="middle">Context Diagram</text></switch></g><rect x="192" y="120" width="150" height="40" rx="6" ry="6" fill="none" stroke="none" pointer-events="all"/><path d="M 193.5 121.5 C 193.5 121.5 193.5 121.5 193.5 121.5 M 193.5 121.5 C 193.5 121.5 193.5 121.5 193.5 121.5 M 193.89 127.14 C 195.78 126.16 197.38 124.41 199.14 121.11 M 193.89 127.14 C 195.28 125.07 196.87 123.51 199.14 121.11 M 193.63 133.54 C 197.74 129.53 199.33 128.14 204.78 120.71 M 193.63 133.54 C 196.3 129.75 200.15 125.26 204.78 120.71 M 193.37 139.94 C 198.18 135.41 200.99 127.55 209.77 121.07 M 193.37 139.94 C 198.48 134.96 204.74 128.19 209.77 121.07 M 193.76 145.58 C 201.11 135.52 210.05 128.13 214.76 121.43 M 193.76 145.58 C 201.82 137.06 208.87 128.27 214.76 121.43 M 193.5 151.98 C 201.93 141.55 211.23 133.58 220.4 121.04 M 193.5 151.98 C 200.82 145.14 205.84 136.31 220.4 121.04 M 194.55 156.87 C 203.84 146.53 211.4 136.61 225.39 121.4 M 194.55 156.87 C 202.51 148.77 210.63 139.4 225.39 121.4 M 196.26 161 C 202.34 152.34 212.28 143.86 231.03 121 M 196.26 161 C 206.98 148.37 217.46 136.83 231.03 121 M 201.9 160.61 C 213.56 149.18 222.88 137.66 236.02 121.36 M 201.9 160.61 C 210.92 149.7 219.86 139.83 236.02 121.36 M 206.89 160.97 C 216.98 151.02 228.48 135.66 241.66 120.97 M 206.89 160.97 C 219.23 146.34 233.43 131.65 241.66 120.97 M 212.53 160.57 C 223.86 145.41 239.83 128.96 246.65 121.33 M 212.53 160.57 C 220.76 151.91 229.11 142.39 246.65 121.33 M 217.52 160.93 C 226.33 152.73 232.66 142.54 252.29 120.93 M 217.52 160.93 C 225.92 151.25 235.95 140.94 252.29 120.93 M 223.16 160.54 C 234.83 145.77 248.49 129.29 257.28 121.29 M 223.16 160.54 C 237.03 145.83 250.37 130.41 257.28 121.29 M 228.15 160.9 C 239.45 147.1 255.23 132.88 262.92 120.9 M 228.15 160.9 C 235.43 153.05 243.11 144.8 262.92 120.9 M 233.79 160.5 C 242.01 148.18 253.31 137.58 267.91 121.26 M 233.79 160.5 C 242.14 152.05 250.49 141.7 267.91 121.26 M 238.78 160.87 C 250.62 148.29 261.99 137.11 273.55 120.87 M 238.78 160.87 C 245.26 153.63 253.52 145.15 273.55 120.87 M 244.42 160.47 C 254.96 147.05 263.76 136.99 278.54 121.23 M 244.42 160.47 C 252.61 150.81 260.66 140.41 278.54 121.23 M 249.41 160.83 C 258.73 149.48 266.54 142.47 283.53 121.59 M 249.41 160.83 C 259.73 148.13 268.27 137.4 283.53 121.59 M 255.05 160.44 C 265.13 145.97 281.23 131.19 289.17 121.19 M 255.05 160.44 C 262.4 150.61 271.75 142.36 289.17 121.19 M 260.04 160.8 C 269.27 151.77 276.63 141.12 294.16 121.55 M 260.04 160.8 C 268.08 151.71 275.42 144.13 294.16 121.55 M 265.03 161.16 C 275.86 149.27 284.53 139.87 299.8 121.16 M 265.03 161.16 C 278.23 145.67 289.42 131.02 299.8 121.16 M 270.67 160.76 C 277.81 153.57 285.2 144.58 304.79 121.52 M 270.67 160.76 C 276.97 152.03 285.56 145.2 304.79 121.52 M 275.66 161.12 C 287.52 149.91 298.35 135.83 310.43 121.12 M 275.66 161.12 C 286.75 149.92 295.54 138.03 310.43 121.12 M 281.3 160.73 C 289.53 151.16 295.73 143.79 315.42 121.48 M 281.3 160.73 C 296.1 144.51 308.81 129.98 315.42 121.48 M 286.29 161.09 C 294.46 150.69 305.47 140.46 321.06 121.09 M 286.29 161.09 C 295.47 149.18 306.3 138.34 321.06 121.09 M 291.93 160.69 C 300.34 150.77 310.17 141.04 326.05 121.45 M 291.93 160.69 C 304.5 145.97 316.02 130.7 326.05 121.45 M 296.92 161.05 C 306.75 153.82 310.86 142.32 331.69 121.05 M 296.92 161.05 C 305.3 149.68 314.83 139.37 331.69 121.05 M 302.56 160.66 C 315.09 145.19 325.32 130.82 336.68 121.41 M 302.56 160.66 C 310.53 150.18 318.27 140.95 336.68 121.41 M 307.55 161.02 C 316.55 148.99 329.4 137.56 341.01 122.53 M 307.55 161.02 C 321.16 146.97 332.83 132.42 341.01 122.53 M 313.19 160.62 C 320.01 149.43 329.74 140.73 342.71 126.66 M 313.19 160.62 C 325.02 147.71 335.96 133.24 342.71 126.66 M 318.18 160.98 C 328.98 152.06 336.35 138.75 342.45 133.06 M 318.18 160.98 C 324.3 155.33 328.6 147.96 342.45 133.06 M 323.17 161.34 C 329.28 153.96 335.66 143.64 342.85 138.7 M 323.17 161.34 C 329.83 155.19 336.39 148.31 342.85 138.7 M 328.81 160.95 C 335.04 156.5 339.57 148.26 342.59 145.1 M 328.81 160.95 C 332.13 156.93 336.29 152.31 342.59 145.1 M 333.8 161.31 C 337.09 158.5 336.96 155.61 342.32 151.5 M 333.8 161.31 C 336.7 157.6 340.03 155.16 342.32 151.5" fill="none" stroke="#00ff00" stroke-width="0.5" stroke-linejoin="round" stroke-linecap="round" stroke-miterlimit="10" pointer-events="all"/><path d="M 198 120 M 198 120 C 228.45 120.76 258.77 122.73 336 120 M 198 120 C 240.19 121.3 281.47 120.44 336 120 M 336 120 C 340.27 119.89 340.9 122.36 342 126 M 336 120 C 339.81 120.66 341.87 123.07 342 126 M 342 126 C 340.78 132.49 342.83 137.93 342 154 M 342 126 C 341.4 133.17 342.75 140.9 342 154 M 342 154 C 342.14 156.59 341.63 159.88 336 160 M 342 154 C 339.98 156.2 340.41 159.18 336 160 M 336 160 C 302.6 160.59 267.15 156.97 198 160 M 336 160 C 298.6 159.83 261.34 158.36 198 160 M 198 160 C 193.74 161.96 191.76 158.03 192 154 M 198 160 C 193.05 157.93 191.97 159.18 192 154 M 192 154 C 191.59 144.14 190.67 134.97 192 126 M 192 154 C 191.88 146.37 191.77 137.58 192 126 M 192 126 C 192.87 123.01 194.34 121.53 198 120 M 192 126 C 191.53 122.65 194.34 119.02 198 120" fill="none" stroke="#000000" stroke-linejoin="round" stroke-linecap="round" stroke-miterlimit="10" pointer-events="all"/><g transform="translate(-0.5 -0.5)"><switch><foreignObject pointer-events="none" width="100%" height="100%" requiredFeatures="http://www.w3.org/TR/SVG11/feature#Extensibility" style="overflow: visible; text-align: left;"><div xmlns="http://www.w3.org/1999/xhtml" style="display: flex; align-items: unsafe center; justify-content: unsafe center; width: 148px; height: 1px; padding-top: 140px; margin-left: 193px;"><div data-drawio-colors="color: rgb(0, 0, 0); " style="box-sizing: border-box; font-size: 0px; text-align: center;"><div style="display: inline-block; font-size: 12px; font-family: Georgia; color: rgb(0, 0, 0); line-height: 1.2; pointer-events: all; white-space: normal; overflow-wrap: normal;"><b><font style="font-size: 14px">Software Diagram</font></b></div></div></div></foreignObject><text x="267" y="144" fill="rgb(0, 0, 0)" font-family="Georgia" font-size="12px" text-anchor="middle">Software Diagram</text></switch></g><path d="M 182 210 C 182 210 182 210 182 210 M 182 210 C 182 210 182 210 182 210 M 181.74 216.4 C 182.49 214.99 184.43 213.32 186.99 210.36 M 181.74 216.4 C 183.6 214.28 185.48 211.8 186.99 210.36 M 182.13 222.04 C 185.89 217.87 186.21 216.66 192.63 209.97 M 182.13 222.04 C 185.76 218.12 188.84 214.98 192.63 209.97 M 181.87 228.44 C 185.56 223.07 189.94 218.01 197.62 210.33 M 181.87 228.44 C 184.9 225.14 187.84 221.3 197.62 210.33 M 182.27 234.08 C 189.42 226.34 196.76 219.61 203.26 209.93 M 182.27 234.08 C 190.46 225 198.26 216.53 203.26 209.93 M 182 240.48 C 187.72 234.32 192.96 225.99 208.25 210.29 M 182 240.48 C 190.62 231.52 198.32 222.23 208.25 210.29 M 181.74 246.88 C 194.04 235.32 202.53 222.36 211.27 212.92 M 181.74 246.88 C 189.35 237.98 197.18 228.86 211.27 212.92 M 182.14 252.52 C 192.66 239.21 200.91 228.6 213.63 216.29 M 182.14 252.52 C 191.46 243.08 200.08 232.08 213.63 216.29 M 181.88 258.92 C 190.94 249.59 199.19 238.69 216.65 218.92 M 181.88 258.92 C 189.72 251.07 197.2 240.95 216.65 218.92 M 184.24 262.3 C 195.92 249.58 207.49 233.2 219.67 221.54 M 184.24 262.3 C 191.51 252.85 200.15 244.22 219.67 221.54 M 189.88 261.9 C 196.46 252.42 203.85 242.8 222.69 224.17 M 189.88 261.9 C 201.55 249.06 212.59 236.26 222.69 224.17 M 194.87 262.26 C 205.71 252.53 213.58 243.31 222.42 230.56 M 194.87 262.26 C 202.1 254.38 207.74 247.81 222.42 230.56 M 200.51 261.87 C 205.37 254.51 213.25 248.54 222.16 236.96 M 200.51 261.87 C 209.81 252.09 217.11 241.17 222.16 236.96 M 205.5 262.23 C 212.42 253.45 216.94 248.89 222.56 242.61 M 205.5 262.23 C 211.08 256.66 216.88 249.19 222.56 242.61 M 211.14 261.83 C 212.66 258.32 217.83 255.24 222.3 249 M 211.14 261.83 C 215.27 258.45 217.9 253.11 222.3 249 M 216.13 262.19 C 217.48 259.26 218.76 257.96 222.69 254.65 M 216.13 262.19 C 217.85 260.5 218.89 259.25 222.69 254.65" fill="none" stroke="#1ba1e2" stroke-width="0.5" stroke-linejoin="round" stroke-linecap="round" stroke-miterlimit="10" pointer-events="none"/><path d="M 182 210 M 182 210 C 191.98 210.63 202.21 210.25 208 210 M 182 210 C 189.67 210.7 196.49 209.69 208 210 M 208 210 C 211.29 214.99 216.44 217.29 222 224 M 208 210 C 212.09 213.76 215.13 215.7 222 224 M 222 224 C 223.18 230.1 224.14 239.56 222 260 M 222 224 C 221.69 237.77 222.91 251.18 222 260 M 222 260 C 205.17 261.59 190.15 260.21 182 260 M 222 260 C 213.15 260.65 202.51 259.36 182 260 M 182 260 C 181.55 239.41 182.32 219.76 182 210 M 182 260 C 182.06 241.03 181.4 224.52 182 210 M 182 210 C 182 210 182 210 182 210 M 182 210 C 182 210 182 210 182 210" fill="none" stroke="#006eaf" stroke-linejoin="round" stroke-linecap="round" stroke-miterlimit="10" pointer-events="none"/><path d="M 207.96 210.04 C 207.96 210.04 207.96 210.04 207.96 210.04 M 207.96 210.04 C 207.96 210.04 207.96 210.04 207.96 210.04 M 207.7 216.44 C 208.17 215.56 209.38 214.52 210.98 212.67 M 207.7 216.44 C 208.86 215.12 210.04 213.57 210.98 212.67 M 208.1 222.08 C 209.97 220 210.14 219.4 213.34 216.05 M 208.1 222.08 C 209.91 220.13 211.45 218.55 213.34 216.05 M 209.8 226.22 C 211.24 223.99 213.03 221.91 216.36 218.67 M 209.8 226.22 C 211.05 224.88 212.25 223.27 216.36 218.67 M 215.45 225.82 C 216.84 224.38 218.29 223.22 219.38 221.3 M 215.45 225.82 C 217.06 224.09 218.56 222.53 219.38 221.3" fill="none" stroke="#000000" stroke-opacity="0.05" stroke-width="0.5" stroke-linejoin="round" stroke-linecap="round" stroke-miterlimit="10" pointer-events="none"/><path d="M 208 210 M 208 210 C 207.14 211.9 206.55 216.58 208 224 M 208 210 C 207.61 214.88 207.85 219.44 208 224 M 208 224 C 210.6 224.5 215.34 224.53 222 224 M 208 224 C 213.01 224.38 218.15 224.07 222 224" fill="none" stroke="#006eaf" stroke-linejoin="round" stroke-linecap="round" stroke-miterlimit="10" pointer-events="none"/><path d="M 232 210 C 232 210 232 210 232 210 M 232 210 C 232 210 232 210 232 210 M 231.74 216.4 C 234.05 214.08 235.71 213.26 236.99 210.36 M 231.74 216.4 C 233.95 214.31 235.26 211.89 236.99 210.36 M 232.13 222.04 C 235.01 219.22 236.51 216.48 242.63 209.97 M 232.13 222.04 C 235.67 217.72 238.4 214.79 242.63 209.97 M 231.87 228.44 C 236.9 224.1 240.88 217.92 247.62 210.33 M 231.87 228.44 C 237.76 222.29 243.25 215.54 247.62 210.33 M 232.27 234.08 C 238.46 226.31 248.22 215.51 253.26 209.93 M 232.27 234.08 C 237.23 227.36 242.98 222.24 253.26 209.93 M 232 240.48 C 241.01 230.37 249.57 222.06 258.25 210.29 M 232 240.48 C 239 232.53 246.76 224.68 258.25 210.29 M 231.74 246.88 C 240.23 240.2 246.42 230.19 261.27 212.92 M 231.74 246.88 C 238.83 238.03 247.16 228.58 261.27 212.92 M 232.14 252.52 C 242.23 240.83 252.51 229.5 263.63 216.29 M 232.14 252.52 C 239.97 242.67 247.34 233.9 263.63 216.29 M 231.88 258.92 C 242.52 245.4 253.62 235.13 266.65 218.92 M 231.88 258.92 C 243.53 245.09 254.57 232.33 266.65 218.92 M 234.24 262.3 C 244.26 250.15 253.53 239.38 269.67 221.54 M 234.24 262.3 C 243.23 251.38 251.94 241.14 269.67 221.54 M 239.88 261.9 C 248.55 254.82 255.27 243.2 272.69 224.17 M 239.88 261.9 C 251.32 249.86 262.49 236.09 272.69 224.17 M 244.87 262.26 C 253.82 252.6 259.41 242.19 272.42 230.56 M 244.87 262.26 C 252.14 255.66 258.24 247.41 272.42 230.56 M 250.51 261.87 C 258.07 252.38 263.08 245.68 272.16 236.96 M 250.51 261.87 C 257.33 254.39 262.98 248.86 272.16 236.96 M 255.5 262.23 C 259.86 256.83 263.24 251.05 272.56 242.61 M 255.5 262.23 C 261.66 254.47 268.01 247.79 272.56 242.61 M 261.14 261.83 C 262.5 259.81 268.84 253.08 272.3 249 M 261.14 261.83 C 264.89 256.31 269.26 252.57 272.3 249 M 266.13 262.19 C 268.7 259.14 270.66 255.82 272.69 254.65 M 266.13 262.19 C 268.46 259.54 270.95 257.09 272.69 254.65" fill="none" stroke="#1ba1e2" stroke-width="0.5" stroke-linejoin="round" stroke-linecap="round" stroke-miterlimit="10" pointer-events="none"/><path d="M 232 210 M 232 210 C 238.14 208.21 245.88 211.43 258 210 M 232 210 C 239.03 209.22 244.08 208.84 258 210 M 258 210 C 260.74 214.67 266.31 217.16 272 224 M 258 210 C 261.8 215.07 268 219.05 272 224 M 272 224 C 272.1 231.64 272.07 240.92 272 260 M 272 224 C 272.38 235.69 272.63 248.67 272 260 M 272 260 C 259.51 261.35 250.19 260.64 232 260 M 272 260 C 261.85 259.66 250.75 259.38 232 260 M 232 260 C 231.86 241.96 231.87 225.16 232 210 M 232 260 C 232.31 248.77 231.05 239.7 232 210 M 232 210 C 232 210 232 210 232 210 M 232 210 C 232 210 232 210 232 210" fill="none" stroke="#006eaf" stroke-linejoin="round" stroke-linecap="round" stroke-miterlimit="10" pointer-events="none"/><path d="M 257.96 210.04 C 257.96 210.04 257.96 210.04 257.96 210.04 M 257.96 210.04 C 257.96 210.04 257.96 210.04 257.96 210.04 M 257.7 216.44 C 259.15 214.99 260.19 214.48 260.98 212.67 M 257.7 216.44 C 259.08 215.14 259.9 213.62 260.98 212.67 M 258.1 222.08 C 259.53 220.67 260.28 219.3 263.34 216.05 M 258.1 222.08 C 259.86 219.92 261.23 218.46 263.34 216.05 M 259.8 226.22 C 262.01 224.42 263.68 221.69 266.36 218.67 M 259.8 226.22 C 262.29 223.69 264.57 220.85 266.36 218.67 M 265.45 225.82 C 266.4 224.58 268.4 222.4 269.38 221.3 M 265.45 225.82 C 266.33 224.5 267.45 223.67 269.38 221.3" fill="none" stroke="#000000" stroke-opacity="0.05" stroke-width="0.5" stroke-linejoin="round" stroke-linecap="round" stroke-miterlimit="10" pointer-events="none"/><path d="M 258 210 M 258 210 C 259.17 213.98 257.75 216 258 224 M 258 210 C 258.47 216.03 258.4 221.06 258 224 M 258 224 C 263.63 223.3 268.06 225.19 272 224 M 258 224 C 263.52 224.14 267.55 223.68 272 224" fill="none" stroke="#006eaf" stroke-linejoin="round" stroke-linecap="round" stroke-miterlimit="10" pointer-events="none"/><path d="M 282 210 C 282 210 282 210 282 210 M 282 210 C 282 210 282 210 282 210 M 281.74 216.4 C 284.13 214.66 285.52 211.5 286.99 210.36 M 281.74 216.4 C 283.5 214.34 285.04 211.98 286.99 210.36 M 282.13 222.04 C 286.23 218.16 291.01 211.46 292.63 209.97 M 282.13 222.04 C 285.33 217.32 289.31 213.01 292.63 209.97 M 281.87 228.44 C 287.75 221.51 294.48 214.58 297.62 210.33 M 281.87 228.44 C 285.82 223.06 290.72 217.03 297.62 210.33 M 282.27 234.08 C 287.79 227.11 291.77 221.06 303.26 209.93 M 282.27 234.08 C 290.19 224.47 298.1 215.86 303.26 209.93 M 282 240.48 C 290.9 229.89 302.79 217.6 308.25 210.29 M 282 240.48 C 287.39 233.54 293.2 227.12 308.25 210.29 M 281.74 246.88 C 292.33 237.69 298.12 227.85 311.27 212.92 M 281.74 246.88 C 289.63 238.08 296.47 228.31 311.27 212.92 M 282.14 252.52 C 292.52 241.83 300.84 229.77 313.63 216.29 M 282.14 252.52 C 288.47 244.26 294.6 237.72 313.63 216.29 M 281.88 258.92 C 294.11 244.52 308.06 230.86 316.65 218.92 M 281.88 258.92 C 291.18 249.11 298.83 239.71 316.65 218.92 M 284.24 262.3 C 289.42 254.72 296.38 245.56 319.67 221.54 M 284.24 262.3 C 294.13 250.62 304.92 240.77 319.67 221.54 M 289.88 261.9 C 296.63 252.56 306.69 242.94 322.69 224.17 M 289.88 261.9 C 300.33 248.67 311.64 235.91 322.69 224.17 M 294.87 262.26 C 302.57 252.67 309.87 245.08 322.42 230.56 M 294.87 262.26 C 301.54 254.94 308.1 247.01 322.42 230.56 M 300.51 261.87 C 306.28 254.25 316.41 242.81 322.16 236.96 M 300.51 261.87 C 307.17 254.15 315.51 245.02 322.16 236.96 M 305.5 262.23 C 310.72 255.96 316.36 249.03 322.56 242.61 M 305.5 262.23 C 312.25 254.28 319.14 246.38 322.56 242.61 M 311.14 261.83 C 315.98 257.9 316.71 254.32 322.3 249 M 311.14 261.83 C 313.72 258.43 315.89 255.45 322.3 249 M 316.13 262.19 C 318.45 260.53 319.79 258.7 322.69 254.65 M 316.13 262.19 C 317.6 260.22 319.24 259.08 322.69 254.65" fill="none" stroke="#1ba1e2" stroke-width="0.5" stroke-linejoin="round" stroke-linecap="round" stroke-miterlimit="10" pointer-events="none"/><path d="M 282 210 M 282 210 C 288.29 210.31 293.55 209.14 308 210 M 282 210 C 288.38 210.25 293.67 210.52 308 210 M 308 210 C 310.19 214.06 316.19 216.75 322 224 M 308 210 C 310.41 213.57 313.01 216.8 322 224 M 322 224 C 320.31 233.18 323.27 242.29 322 260 M 322 224 C 323.06 235.61 322.35 246.16 322 260 M 322 260 C 305.84 261.91 290.23 261.86 282 260 M 322 260 C 310.56 259.87 296.99 260.6 282 260 M 282 260 C 281.18 244.51 280.43 226.55 282 210 M 282 260 C 281.56 248.52 281.69 234.88 282 210 M 282 210 C 282 210 282 210 282 210 M 282 210 C 282 210 282 210 282 210" fill="none" stroke="#006eaf" stroke-linejoin="round" stroke-linecap="round" stroke-miterlimit="10" pointer-events="none"/><path d="M 307.96 210.04 C 307.96 210.04 307.96 210.04 307.96 210.04 M 307.96 210.04 C 307.96 210.04 307.96 210.04 307.96 210.04 M 307.7 216.44 C 309.2 215.36 310.07 213.38 310.98 212.67 M 307.7 216.44 C 308.8 215.16 309.77 213.68 310.98 212.67 M 308.1 222.08 C 310.14 220.14 312.53 216.8 313.34 216.05 M 308.1 222.08 C 309.69 219.72 311.68 217.57 313.34 216.05 M 309.8 226.22 C 312.24 223.34 315.1 220.45 316.36 218.67 M 309.8 226.22 C 311.37 224 313.41 221.45 316.36 218.67 M 315.45 225.82 C 316.47 224.48 317.03 223.4 319.38 221.3 M 315.45 225.82 C 316.98 223.93 318.51 222.32 319.38 221.3" fill="none" stroke="#000000" stroke-opacity="0.05" stroke-width="0.5" stroke-linejoin="round" stroke-linecap="round" stroke-miterlimit="10" pointer-events="none"/><path d="M 308 210 M 308 210 C 308.39 213.25 308.95 215.41 308 224 M 308 210 C 307.93 214.39 307.56 217.07 308 224 M 308 224 C 313.86 224.62 317.99 222.78 322 224 M 308 224 C 312.63 223.91 316.94 223.29 322 224" fill="none" stroke="#006eaf" stroke-linejoin="round" stroke-linecap="round" stroke-miterlimit="10" pointer-events="none"/><g transform="translate(-0.5 -0.5)"><switch><foreignObject pointer-events="none" width="100%" height="100%" requiredFeatures="http://www.w3.org/TR/SVG11/feature#Extensibility" style="overflow: visible; text-align: left;"><div xmlns="http://www.w3.org/1999/xhtml" style="display: flex; align-items: unsafe center; justify-content: unsafe center; width: 28px; height: 1px; padding-top: 250px; margin-left: 323px;"><div data-drawio-colors="color: rgb(0, 0, 0); " style="box-sizing: border-box; font-size: 0px; text-align: center;"><div style="display: inline-block; font-size: 12px; font-family: Georgia; color: rgb(0, 0, 0); line-height: 1.2; pointer-events: none; white-space: normal; overflow-wrap: normal;"><b><font style="font-size: 16px">...</font></b></div></div></div></foreignObject><text x="337" y="254" fill="rgb(0, 0, 0)" font-family="Georgia" font-size="12px" text-anchor="middle">...</text></switch></g><path d="M 32 0 C 61.02 -1.06 91.38 -1.82 132 0 M 32 0 C 65.71 -1.5 99.53 -0.36 132 0 M 132 0 C 131.52 5.28 131.23 14.59 132 30 M 132 0 C 132.59 12.1 132.35 23.52 132 30 M 132 30 C 102.53 30.38 76.5 30.37 32 30 M 132 30 C 106.78 30.12 80.12 28.78 32 30 M 32 30 C 29.98 23.57 30.37 16.98 32 0 M 32 30 C 32.53 20.84 32.23 9.71 32 0" fill="none" stroke="#b3b3b3" stroke-linejoin="round" stroke-linecap="round" stroke-miterlimit="10" pointer-events="none"/><g transform="translate(-0.5 -0.5)"><switch><foreignObject pointer-events="none" width="100%" height="100%" requiredFeatures="http://www.w3.org/TR/SVG11/feature#Extensibility" style="overflow: visible; text-align: left;"><div xmlns="http://www.w3.org/1999/xhtml" style="display: flex; align-items: unsafe center; justify-content: unsafe center; width: 98px; height: 1px; padding-top: 15px; margin-left: 33px;"><div data-drawio-colors="color: #666666; " style="box-sizing: border-box; font-size: 0px; text-align: center;"><div style="display: inline-block; font-size: 12px; font-family: Georgia; color: rgb(102, 102, 102); line-height: 1.2; pointer-events: none; white-space: normal; overflow-wrap: normal;"><b style="font-size: 13px"><font style="font-size: 13px">runtime view</font></b></div></div></div></foreignObject><text x="82" y="19" fill="#666666" font-family="Georgia" font-size="12px" text-anchor="middle">runtime view</text></switch></g><path d="M 219.5 0 C 249.87 2.66 277.54 2.09 314.5 0 M 219.5 0 C 238.56 0.09 260.1 0.45 314.5 0 M 314.5 0 C 314.03 8.51 316.59 17.54 314.5 30 M 314.5 0 C 314.38 11.13 315.03 21.59 314.5 30 M 314.5 30 C 289.51 29.74 266.55 27.23 219.5 30 M 314.5 30 C 285.91 30.47 257.66 30.02 219.5 30 M 219.5 30 C 220.2 19.33 221.12 6.33 219.5 0 M 219.5 30 C 218.39 22.21 220.25 14.38 219.5 0" fill="none" stroke="#b3b3b3" stroke-linejoin="round" stroke-linecap="round" stroke-miterlimit="10" pointer-events="none"/><g transform="translate(-0.5 -0.5)"><switch><foreignObject pointer-events="none" width="100%" height="100%" requiredFeatures="http://www.w3.org/TR/SVG11/feature#Extensibility" style="overflow: visible; text-align: left;"><div xmlns="http://www.w3.org/1999/xhtml" style="display: flex; align-items: unsafe center; justify-content: unsafe center; width: 93px; height: 1px; padding-top: 15px; margin-left: 221px;"><div data-drawio-colors="color: rgb(0, 0, 0); " style="box-sizing: border-box; font-size: 0px; text-align: center;"><div style="display: inline-block; font-size: 12px; font-family: Georgia; color: rgb(0, 0, 0); line-height: 1.2; pointer-events: none; white-space: normal; overflow-wrap: normal;"><b style="font-size: 13px"><font style="font-size: 13px" color="#666666">static view</font></b></div></div></div></foreignObject><text x="267" y="19" fill="rgb(0, 0, 0)" font-family="Georgia" font-size="12px" text-anchor="middle">static view</text></switch></g><path d="M 162 190 M 162 190 C 221.06 189.82 280.43 191.03 355.63 190 M 162 190 C 219.5 191.68 276.49 191.37 355.63 190" fill="none" stroke="#808080" stroke-linejoin="round" stroke-linecap="round" stroke-miterlimit="10" pointer-events="none"/><path d="M 353.77 186.62 C 353.77 186.62 353.77 186.62 353.77 186.62 M 353.77 186.62 C 353.77 186.62 353.77 186.62 353.77 186.62 M 356.13 190 C 356.55 189.57 357.07 189 357.45 188.49 M 356.13 190 C 356.4 189.55 356.8 189.28 357.45 188.49" fill="none" stroke="#808080" stroke-width="0.5" stroke-linejoin="round" stroke-linecap="round" stroke-miterlimit="10" pointer-events="none"/><path d="M 360.88 190 M 360.88 190 C 358.91 191.72 355.78 191.69 353.88 193.5 M 360.88 190 C 358.71 191.26 356.54 191.97 353.88 193.5 M 353.88 193.5 C 354.73 192.61 354.46 191.47 355.63 190 M 353.88 193.5 C 354.2 192.57 354.81 191.59 355.63 190 M 355.63 190 C 355.41 188.86 354.24 187.89 353.88 186.5 M 355.63 190 C 354.96 188.61 354.26 187.65 353.88 186.5 M 353.88 186.5 C 355.48 187.73 357.56 187.86 360.88 190 M 353.88 186.5 C 355.45 187.6 357.19 187.8 360.88 190" fill="none" stroke="#808080" stroke-linejoin="round" stroke-linecap="round" stroke-miterlimit="10" pointer-events="none"/><path d="M 162 190 M 162 190 C 161.5 142.25 161.16 97.22 162 36.37 M 162 190 C 164.21 133.21 163.03 77.25 162 36.37" fill="none" stroke="#808080" stroke-linejoin="round" stroke-linecap="round" stroke-miterlimit="10" pointer-events="none"/><path d="M 162.3 30.78 C 162.3 30.78 162.3 30.78 162.3 30.78 M 162.3 30.78 C 162.3 30.78 162.3 30.78 162.3 30.78 M 162.69 36.42 C 163.1 36.13 163.55 35.38 164 34.91 M 162.69 36.42 C 163.05 35.98 163.3 35.72 164 34.91" fill="none" stroke="#808080" stroke-width="0.5" stroke-linejoin="round" stroke-linecap="round" stroke-miterlimit="10" pointer-events="none"/><path d="M 162 31.12 M 162 31.12 C 163.14 32.57 164.14 35.59 165.5 38.12 M 162 31.12 C 163.36 33.75 163.92 35.29 165.5 38.12 M 165.5 38.12 C 164.87 37.8 164.33 37.58 162 36.37 M 165.5 38.12 C 164.73 37.77 164.13 37.31 162 36.37 M 162 36.37 C 161.15 36.43 160.73 37.44 158.5 38.12 M 162 36.37 C 161.23 37 160.28 37.09 158.5 38.12 M 158.5 38.12 C 160.16 35.67 160.6 33.85 162 31.12 M 158.5 38.12 C 159.52 35.79 161.48 32.74 162 31.12" fill="none" stroke="#808080" stroke-linejoin="round" stroke-linecap="round" stroke-miterlimit="10" pointer-events="none"/></g><switch><g requiredFeatures="http://www.w3.org/TR/SVG11/feature#Extensibility"/><a transform="translate(0,-5)" xlink:href="https://www.diagrams.net/doc/faq/svg-export-text-problems" target="_blank"><text text-anchor="middle" font-size="10px" x="50%" y="100%">Text is not SVG - cannot display</text></a></switch></svg>